<?xml version="1.0" standalone="no"?>
<!DOCTYPE svg PUBLIC "-//W3C//DTD SVG 20010904//EN"
 "http://www.w3.org/TR/2001/REC-SVG-20010904/DTD/svg10.dtd">
<svg version="1.0" xmlns="http://www.w3.org/2000/svg"
 width="512.000000pt" height="512.000000pt" viewBox="0 0 512.000000 512.000000"
 preserveAspectRatio="xMidYMid meet">
<metadata>
Created by potrace 1.14, written by Peter Selinger 2001-2017
</metadata>
<g transform="translate(0.000000,512.000000) scale(0.100000,-0.100000)"
fill="#000000" stroke="none">
<path d="M415 4786 c-41 -18 -83 -69 -90 -109 -7 -38 -1 -1265 7 -1287 2 -8
10 -35 17 -60 42 -150 174 -305 322 -378 142 -70 140 -70 826 -71 680 -1 657
-4 709 65 l29 37 2 631 c3 707 5 684 -70 835 -56 116 -160 222 -271 276 -43
22 -83 40 -90 42 -6 1 -38 9 -71 17 -84 21 -1273 23 -1320 2z m1317 -335 c85
-41 150 -118 176 -205 8 -28 11 -191 12 -543 l0 -503 -504 0 c-503 1 -526 2
-603 36 -46 21 -114 91 -143 149 l-25 50 -3 523 -3 523 523 -3 523 -3 47 -24z"/>
<path d="M3355 4776 c-119 -32 -199 -79 -287 -168 -87 -88 -149 -198 -172
-308 -19 -88 -21 -1266 -3 -1320 7 -20 30 -48 55 -67 l43 -33 622 0 c698 0
689 0 837 73 147 72 263 208 322 378 23 64 23 65 23 716 0 643 0 652 -21 679
-11 15 -33 37 -48 48 -27 21 -38 21 -659 23 -624 1 -633 1 -712 -21z m1123
-818 l-3 -523 -24 -49 c-31 -63 -94 -126 -157 -157 l-49 -24 -522 -3 -523 -3
0 504 c0 441 2 510 16 553 37 108 122 189 229 215 17 4 256 7 533 8 l503 1 -3
-522z"/>
<path d="M843 2230 c-195 -40 -370 -171 -452 -342 -71 -147 -71 -139 -71 -833
l0 -621 24 -35 c14 -20 37 -44 53 -55 27 -18 55 -19 653 -21 694 -2 698 -1
829 63 170 84 289 229 338 414 23 85 23 88 20 712 -2 615 -2 627 -23 654 -11
15 -33 37 -48 48 -27 21 -38 21 -654 23 -345 0 -646 -3 -669 -7z m1075 -832
l-3 -523 -24 -47 c-41 -84 -108 -142 -195 -172 -43 -14 -112 -16 -553 -16
l-504 0 3 523 c3 522 3 522 26 568 41 83 109 143 192 172 38 13 122 16 553 17
l508 0 -3 -522z"/>
<path d="M2975 2226 c-37 -17 -70 -52 -84 -90 -8 -19 -11 -224 -11 -640 1
-508 3 -621 16 -671 8 -33 16 -65 17 -71 2 -7 20 -47 42 -90 54 -111 160 -215
276 -271 151 -75 128 -73 835 -70 l631 2 37 29 c69 52 66 29 65 709 -1 686 -1
684 -71 826 -73 148 -228 280 -378 322 -25 7 -52 15 -60 17 -8 3 -301 7 -650
9 -518 2 -641 0 -665 -11z m1320 -336 c58 -29 128 -97 149 -143 34 -77 35
-100 36 -603 l0 -505 -522 3 -523 3 -49 25 c-65 33 -126 93 -156 155 l-25 50
-3 523 -3 523 523 -3 523 -3 50 -25z"/>
</g>
</svg>
